<svg width="64" height="64" viewBox="0 0 64 64" fill="none" xmlns="http://www.w3.org/2000/svg">
<path fill-rule="evenodd" clip-rule="evenodd" d="M30.0625 0.39805C29.2264 1.13588 28.6609 2.68815 28.1032 5.77677C27.8183 7.35532 27.8162 7.42357 27.8026 15.3441C27.7945 20.0416 27.7459 23.2554 27.6845 23.1606C27.6271 23.0721 27.5756 22.7674 27.5701 22.4835C27.5505 21.4784 27.5833 21.4754 25.5818 22.6647C24.5816 23.2591 23.7227 23.7453 23.6732 23.7453C23.6236 23.7453 23.5814 22.8033 23.5793 21.6518C23.5766 20.093 23.5357 19.5071 23.4196 19.3576C23.286 19.1858 23.0577 19.1569 21.8336 19.1569C19.8018 19.1569 19.8245 19.1372 19.8245 20.898C19.8245 21.6518 19.9104 22.8073 20.0154 23.4658C20.1928 24.578 20.2253 24.663 20.4721 24.663C20.6869 24.663 20.7533 24.7457 20.8178 25.0932C20.8617 25.3298 20.9232 25.6524 20.9544 25.8101C21.0095 26.0882 21.0054 26.0871 20.8204 25.7724C20.7106 25.5859 20.5623 25.4731 20.4716 25.5071C20.3183 25.5645 18.4559 26.6588 6.85151 33.5096L1.33697 36.7651L0.655726 38.423C-0.0977518 40.2568 -0.0641565 40.1413 0.0875962 40.3756C0.179681 40.5178 0.246039 40.4996 0.505616 40.2608C0.719386 40.0642 2.15587 39.516 5.17942 38.4772L9.54454 36.9773L9.66329 36.5652C9.82502 36.0037 9.92897 35.9339 9.92815 36.3875C9.92651 37.3165 9.96433 37.5203 10.1514 37.5904C10.4074 37.6863 10.6628 37.3351 10.6634 36.8866L10.6639 36.5357L13.5117 35.6649L16.3596 34.7941L16.4853 34.2948C16.6466 33.6551 16.7418 33.8185 16.745 34.7407C16.7475 35.4216 16.8968 35.8198 17.082 35.6389C17.1263 35.5957 17.186 35.2834 17.2147 34.9448L17.267 34.3291L18.6926 33.8984C20.4498 33.3672 20.2677 33.4004 21.4848 33.39L22.4993 33.3811L22.5781 32.8676C22.7042 32.0468 22.8443 32.167 22.8491 33.1001C22.8553 34.3035 23.2352 34.7179 23.4094 33.7113L23.4909 33.2396L25.895 33.2999C27.2173 33.3331 28.3158 33.3778 28.3364 33.3994C28.3729 33.4377 28.4602 35.6415 28.5787 39.5182C28.6114 40.5908 28.6625 42.0619 28.692 42.7875C28.7218 43.513 28.7752 45.2939 28.8109 46.745C28.8466 48.1961 28.9029 49.6157 28.9359 49.8996C29.0887 51.2133 29.7396 54.888 30 55.907C30.1591 56.5296 30.2688 57.059 30.2438 57.0834C30.2187 57.1079 30.0503 56.7596 29.8695 56.3095C29.6313 55.7164 29.5136 55.5384 29.4425 55.6627C29.2697 55.9643 27.8121 57.0478 25.6973 58.4466C24.5668 59.1944 23.285 60.0643 22.849 60.3798L22.0562 60.9534V62.0132V63.073L22.4966 62.9525C25.4228 62.1523 31.0071 60.8452 31.0406 60.9528C31.063 61.0249 31.2172 61.5618 31.3831 62.1457C31.549 62.7295 31.7632 63.3903 31.8589 63.614C32.0325 64.0199 32.0343 64.0207 32.7075 63.9863L33.3821 63.9518L33.6419 63.1488C33.7847 62.7072 33.9669 61.9973 34.0466 61.5715C34.1264 61.1457 34.2336 60.7972 34.2848 60.7972C34.336 60.7972 36.3101 61.1328 38.6717 61.5429C41.0332 61.9529 43.0178 62.2885 43.0818 62.2885C43.1488 62.2885 43.1982 61.9049 43.1982 61.3835C43.1982 60.6847 43.1513 60.4267 42.9926 60.2513C42.8795 60.1263 41.5725 59.3133 40.088 58.4446C37.3397 56.8366 36.3854 56.2161 35.7179 55.6037L35.3437 55.2603L35.0779 56.1537C34.9318 56.645 34.7939 56.9935 34.7715 56.9282C34.7494 56.863 34.8401 56.185 34.9735 55.4217C35.2598 53.7828 35.6616 50.038 35.6215 49.3834C35.606 49.131 35.556 47.505 35.5105 45.77C35.465 44.035 35.4092 42.3057 35.3866 41.9271C35.364 41.5486 35.3138 40.0258 35.2751 38.5431C35.2364 37.0605 35.1749 35.2151 35.1384 34.4422L35.0719 33.037L35.9344 33.0229C36.4088 33.0151 37.0083 32.9948 37.2667 32.9777C37.5251 32.9606 38.2165 32.9412 38.8032 32.9344L39.8701 32.9223L39.991 32.3774L40.112 31.8325L40.1281 32.7037C40.1412 33.4042 40.1885 33.6141 40.3699 33.7744C40.5849 33.9643 40.6014 33.9628 40.7222 33.7423C40.792 33.615 40.8491 33.3527 40.8491 33.1593V32.8076H42.2381C43.4087 32.8076 43.8151 32.8591 44.8221 33.1352C45.8621 33.4203 46.0183 33.4389 46.0258 33.2786C46.0397 32.9858 46.1347 32.5397 46.196 32.4799C46.2268 32.4498 46.2551 32.5757 46.2588 32.7597C46.2625 32.9438 46.362 33.4557 46.4798 33.8973C46.7209 34.8015 46.9692 34.9544 47.0833 34.2689C47.1228 34.0315 47.1776 33.8154 47.2052 33.7886C47.2327 33.7617 48.5215 34.0945 50.0693 34.5282C51.6172 34.962 52.8993 35.3014 52.9186 35.2825C52.938 35.2637 52.9993 35.0217 53.0549 34.7448L53.1562 34.2415L53.1718 34.8724C53.1882 35.5315 53.3402 36.327 53.4748 36.4586C53.5943 36.5752 53.8866 36.1257 53.8866 35.8255C53.8866 35.6798 53.9141 35.5606 53.9476 35.5606C54.1411 35.5606 63.2059 38.3282 63.5016 38.4774C63.698 38.5766 63.8878 38.6579 63.9232 38.6579C64.1152 38.6579 63.9331 37.9722 63.5343 37.1928C63.2849 36.7052 63.0187 36.1191 62.9427 35.8903C62.7275 35.2419 62.1374 34.6977 61.0514 34.1462C60.5023 33.8674 58.2824 32.7483 56.1183 31.6593C53.9542 30.5703 51.6021 29.3836 50.8915 29.0223C50.1809 28.661 48.767 27.9453 47.7496 27.4318C44.2171 25.6494 42.1996 24.6269 42.1647 24.6012C42.0741 24.5345 42.3 23.9745 42.418 23.973C42.7868 23.9682 42.8531 23.7593 42.9109 22.4175C42.9434 21.6651 42.9925 20.6118 43.0202 20.0766C43.0653 19.2034 43.0448 19.0769 42.8202 18.8435C42.5867 18.6007 42.4743 18.5833 41.1427 18.5833C39.7844 18.5833 39.7026 18.5967 39.4482 18.8611C39.3012 19.0139 39.1761 19.2591 39.1702 19.406C39.1411 20.1211 39.3549 23.3555 39.4467 23.5914C39.5939 23.9696 39.5028 23.9251 39.2335 23.4872C39.0775 23.2335 38.8206 23.0455 38.4291 22.8984C37.5564 22.5708 35.9505 21.7031 35.4971 21.3144L35.0937 20.9685L35.0759 21.3531C35.066 21.5648 35.0457 21.7895 35.0307 21.8526C35.0156 21.9157 34.9973 22.247 34.9898 22.5887C34.9618 23.8705 34.8816 23.0333 34.8039 20.6481C34.7596 19.2916 34.705 18.0528 34.6825 17.895C34.66 17.7373 34.6072 16.4984 34.5652 15.142C34.5231 13.7855 34.4703 12.5466 34.4478 12.3889C34.4254 12.2311 34.3719 11.0955 34.329 9.86521C34.2639 8.00057 34.193 7.37057 33.9026 6.07972C33.2438 3.1509 32.4365 1.27823 31.4775 0.453685C31.1872 0.204187 30.8516 0 30.7317 0C30.6117 0 30.3106 0.17918 30.0625 0.39805Z" fill="black"/>
</svg>
