<svg width="96" height="97" viewBox="0 0 96 97" fill="none" xmlns="http://www.w3.org/2000/svg">
<g clip-path="url(#clip0_259_322)">
<path d="M12.5887 59.1654C13.1109 59.1654 23.564 61.5103 28.7253 62.6828C26.3682 68.8836 25.0991 70.0802 24.7727 70.1165C24.5116 70.1455 14.3414 64.3508 9.28888 61.4499L10.9207 59.8181C11.5371 59.2017 11.936 59.1654 12.5887 59.1654Z" fill="#F0F0F0"/>
<path d="M37.5972 84.174C37.5972 83.6518 35.2523 73.1987 34.0798 68.0375C27.879 70.3945 26.6824 71.6637 26.6461 71.99C26.6171 72.2511 32.4118 82.4214 35.3127 87.4739L36.9445 85.8421C37.561 85.2256 37.5972 84.8267 37.5972 84.174Z" fill="#F0F0F0"/>
<path d="M49.7587 20.7073C48.9837 21.0449 45.3177 24.4649 43.8074 26.2486C43.1851 26.8708 45.4133 28.8793 45.4133 28.8793C45.4133 28.8793 47.4218 31.1075 48.044 30.4852C49.8277 28.9749 53.2477 25.3089 53.5853 24.5339C54.0074 23.5652 53.1581 22.5695 52.4406 21.852C51.7231 21.1345 50.7274 20.2852 49.7587 20.7073Z" fill="white"/>
<path d="M52.4406 21.8519C51.7231 21.1344 50.7274 20.2851 49.7586 20.7072C49.611 20.7716 49.3584 20.9477 49.0359 21.2031C49.0359 21.2031 50.149 21.0976 51.672 22.6206C53.195 24.1436 53.0894 25.2567 53.0894 25.2567C53.3448 24.9341 53.521 24.6815 53.5853 24.5339C54.0074 23.5652 53.1581 22.5694 52.4406 21.8519Z" fill="#E4E4E4"/>
<path d="M50.3374 23.8101L50.4825 23.9551L45.3333 29.2494L45.0432 28.9593L50.3374 23.8101Z" fill="#E4E4E4"/>
<path d="M72.2411 43.1897C71.4661 43.5274 67.8001 46.9473 66.2898 48.731C65.6676 49.3532 67.8957 51.3617 67.8957 51.3617C67.8957 51.3617 69.9042 53.5899 70.5264 52.9677C72.3101 51.4573 75.7301 47.7914 76.0677 47.0164C76.4898 46.0476 75.6405 45.0519 74.923 44.3344C74.2055 43.6169 73.2098 42.7676 72.2411 43.1897Z" fill="white"/>
<path d="M74.923 44.3344C74.2055 43.6169 73.2098 42.7676 72.241 43.1896C72.0934 43.254 71.8409 43.4302 71.5183 43.6856C71.5183 43.6856 72.6314 43.58 74.1544 45.103C75.6774 46.626 75.5718 47.7391 75.5718 47.7391C75.8272 47.4165 76.0034 47.164 76.0677 47.0163C76.4898 46.0476 75.6405 45.0519 74.923 44.3344Z" fill="#E4E4E4"/>
<path d="M72.8198 46.2925L72.9649 46.4375L67.8157 51.7318L67.5256 51.4417L72.8198 46.2925Z" fill="#E4E4E4"/>
<path d="M33.0782 18.3865C32.3032 18.7241 28.6373 22.1441 27.1269 23.9278C26.5047 24.55 28.7328 26.5585 28.7328 26.5585C28.7328 26.5585 30.7414 28.7866 31.3636 28.1644C33.1473 26.6541 36.5672 22.9881 36.9049 22.2131C37.327 21.2444 36.4777 20.2487 35.7602 19.5312C35.0427 18.8137 34.047 17.9644 33.0782 18.3865Z" fill="white"/>
<path d="M35.7602 19.5311C35.0426 18.8136 34.0469 17.9643 33.0782 18.3864C32.9306 18.4508 32.678 18.6269 32.3554 18.8823C32.3554 18.8823 33.4685 18.7768 34.9915 20.2998C36.5145 21.8228 36.409 22.9359 36.409 22.9359C36.6644 22.6133 36.8405 22.3607 36.9049 22.2131C37.327 21.2443 36.4777 20.2486 35.7602 19.5311Z" fill="#E4E4E4"/>
<path d="M33.657 21.4893L33.802 21.6343L28.6529 26.9286L28.3628 26.6385L33.657 21.4893Z" fill="#E4E4E4"/>
<path d="M74.5619 59.8701C73.7869 60.2078 70.1209 63.6277 68.6106 65.4114C67.9884 66.0336 70.2165 68.0422 70.2165 68.0422C70.2165 68.0422 72.225 70.2703 72.8472 69.6481C74.6309 68.1377 78.0509 64.4718 78.3885 63.6968C78.8106 62.728 77.9613 61.7323 77.2438 61.0148C76.5263 60.2973 75.5306 59.448 74.5619 59.8701Z" fill="white"/>
<path d="M77.2438 61.0148C76.5263 60.2973 75.5306 59.448 74.5618 59.8701C74.4142 59.9344 74.1617 60.1106 73.8391 60.366C73.8391 60.366 74.9522 60.2604 76.4752 61.7834C77.9982 63.3064 77.8926 64.4195 77.8926 64.4195C78.148 64.0969 78.3242 63.8444 78.3885 63.6967C78.8106 62.728 77.9613 61.7323 77.2438 61.0148Z" fill="#E4E4E4"/>
<path d="M75.1406 62.9729L75.2857 63.118L70.1365 68.4122L69.8464 68.1221L75.1406 62.9729Z" fill="#E4E4E4"/>
<path fill-rule="evenodd" clip-rule="evenodd" d="M64.8061 21.0904C75.8297 10.0668 82.4536 10.6953 84.3875 12.3875C86.0797 14.3215 86.7083 20.9453 75.6847 31.969L53.6374 54.0162C49.9024 57.7028 41.5912 65.4677 38.2261 67.0343C34.861 68.6008 27.8189 71.9054 24.6641 73.4164L24.0114 72.7636L23.3587 72.1109C24.8696 68.9561 28.1743 61.9141 29.7408 58.549C31.3073 55.1839 39.0722 46.8726 42.7588 43.1377L64.8061 21.0904ZM74.8506 14.3819L77.5703 14.4907L77.3527 15.5786L74.8869 15.1434L74.8506 14.3819ZM82.2843 19.2048L82.3931 21.9244L81.6316 21.8882L81.1965 19.4223L82.2843 19.2048ZM77.5703 15.6511L77.8966 14.5995L80.3987 15.9412L79.4196 16.9203L77.5703 15.6511ZM82.1755 18.8784L81.1239 19.2048L79.8548 17.3554L80.8339 16.3763L82.1755 18.8784Z" fill="white"/>
<path d="M16.2522 21.998C17.6452 21.7664 45.4456 25.808 59.1717 27.8577C48.6925 39.6434 44.7035 43.1243 43.7963 42.5798L38.6426 37.426L11.3196 24.6804C12.3834 23.8827 14.8593 22.2295 16.2522 21.998Z" fill="#F0F0F0"/>
<path d="M74.777 80.5225C75.0086 79.1296 70.967 51.3292 68.9173 37.6031C57.1316 48.0822 53.6507 52.0713 54.1953 52.9785L59.349 58.1322L72.0947 85.4551C72.8923 84.3913 74.5455 81.9155 74.777 80.5225Z" fill="#F0F0F0"/>
<path d="M35.5064 60.7609L36.0141 61.2686L24.0012 73.769C23.728 74.0532 23.2748 74.0577 22.996 73.7789V73.7789C22.7173 73.5002 22.7218 73.0469 23.006 72.7738L35.5064 60.7609Z" fill="#E4E4E4"/>
</g>
<defs>
<clipPath id="clip0_259_322">
<rect width="96" height="96.0001" fill="white" transform="translate(0 0.800049)"/>
</clipPath>
</defs>
</svg>
