<svg width="96" height="97" viewBox="0 0 96 97" fill="none" xmlns="http://www.w3.org/2000/svg">
<g clip-path="url(#clip0_259_358)">
<path d="M13.0869 59.5909C13.6091 59.5909 24.0622 61.9359 29.2234 63.1083C26.8664 69.3091 25.5972 70.5058 25.2709 70.542C25.0098 70.571 14.8395 64.7764 9.78705 61.8754L11.4188 60.2436C12.0353 59.6272 12.4342 59.5909 13.0869 59.5909Z" fill="#F0F0F0"/>
<path d="M38.0953 84.5996C38.0953 84.0774 35.7503 73.6243 34.5779 68.463C28.3771 70.82 27.1804 72.0892 27.1442 72.4156C27.1152 72.6766 32.9098 82.8469 35.8108 87.8994L37.4426 86.2676C38.059 85.6512 38.0953 85.2523 38.0953 84.5996Z" fill="#F0F0F0"/>
<path d="M46.7755 21.1328C46.0005 21.4705 42.3346 24.8904 40.8242 26.6741C40.202 27.2963 42.4301 29.3049 42.4301 29.3049C42.4301 29.3049 44.4386 31.533 45.0609 30.9108C46.8446 29.4004 50.2645 25.7345 50.6022 24.9595C51.0243 23.9907 50.175 22.995 49.4575 22.2775C48.74 21.56 47.7443 20.7107 46.7755 21.1328Z" fill="white"/>
<path d="M49.4574 22.2775C48.7399 21.56 47.7442 20.7107 46.7755 21.1328C46.6278 21.1971 46.3753 21.3733 46.0527 21.6287C46.0527 21.6287 47.1658 21.5231 48.6888 23.0461C50.2118 24.5691 50.1062 25.6822 50.1062 25.6822C50.3616 25.3596 50.5378 25.1071 50.6021 24.9594C51.0242 23.9907 50.1749 22.995 49.4574 22.2775Z" fill="#E4E4E4"/>
<path d="M47.3543 24.2356L47.4993 24.3807L42.3501 29.6749L42.06 29.3848L47.3543 24.2356Z" fill="#E4E4E4"/>
<path d="M72.7391 47.0964C71.9641 47.4341 68.2982 50.854 66.7878 52.6377C66.1656 53.26 68.3937 55.2685 68.3937 55.2685C68.3937 55.2685 70.4023 57.4966 71.0245 56.8744C72.8082 55.364 76.2281 51.6981 76.5658 50.9231C76.9879 49.9543 76.1386 48.9586 75.4211 48.2411C74.7036 47.5236 73.7079 46.6743 72.7391 47.0964Z" fill="white"/>
<path d="M75.421 48.2411C74.7035 47.5236 73.7078 46.6743 72.7391 47.0964C72.5915 47.1607 72.3389 47.3369 72.0163 47.5923C72.0163 47.5923 73.1294 47.4867 74.6524 49.0097C76.1754 50.5327 76.0698 51.6458 76.0698 51.6458C76.3253 51.3232 76.5014 51.0707 76.5658 50.9231C76.9878 49.9543 76.1385 48.9586 75.421 48.2411Z" fill="#E4E4E4"/>
<path d="M73.3179 50.1992L73.4629 50.3443L68.3137 55.6385L68.0236 55.3484L73.3179 50.1992Z" fill="#E4E4E4"/>
<path fill-rule="evenodd" clip-rule="evenodd" d="M66.0015 22.2689C77.0185 11.2519 83.157 11.3988 84.8492 12.8493C86.2997 14.5414 86.4466 20.68 75.4296 31.697L53.3955 53.731C49.666 57.4186 41.396 65.2151 38.1523 66.9001C34.9086 68.585 28.1188 72.1357 25.075 73.7548L24.5093 73.1892L23.9436 72.6235C25.5627 69.5797 29.1135 62.7899 30.7984 59.5462C32.4833 56.3024 40.2798 48.0325 43.9675 44.3029L66.0015 22.2689ZM75.9287 15.3876L78.4308 15.2789L78.1463 16.2998L75.9036 16.0878L75.9287 15.3876ZM81.3987 19.5522L82.4196 19.2677L82.3108 21.7697L81.6107 21.7948L81.3987 19.5522ZM78.3416 16.35L78.7237 15.3542L80.9301 16.4002L79.951 17.3793L78.3416 16.35ZM82.3443 18.9748L81.3485 19.3569L80.3192 17.7475L81.2983 16.7684L82.3443 18.9748Z" fill="white"/>
<path d="M19.8249 24.2554C21.1054 24.0485 46.6988 27.8888 59.3355 29.8348C49.7467 40.6313 46.0922 43.8162 45.2552 43.3112L40.4912 38.5472L15.2988 26.7015C16.2739 25.9723 18.5444 24.4623 19.8249 24.2554Z" fill="#F0F0F0"/>
<path d="M73.4432 77.8736C73.6501 76.5931 69.8098 50.9997 67.8638 38.363C57.0673 47.9518 53.8824 51.6063 54.3874 52.4433L59.1514 57.2073L70.9971 82.3997C71.7262 81.4245 73.2363 79.1541 73.4432 77.8736Z" fill="#F0F0F0"/>
<path d="M34.3221 62.8688L34.8297 63.3765L24.1797 74.5116C23.9075 74.7962 23.4543 74.8013 23.1758 74.5227V74.5227C22.8973 74.2442 22.9023 73.7911 23.187 73.5188L34.3221 62.8688Z" fill="#E4E4E4"/>
</g>
<defs>
<clipPath id="clip0_259_358">
<rect width="96" height="96.0001" fill="white" transform="translate(0 0.800293)"/>
</clipPath>
</defs>
</svg>
