<svg width="96" height="97" viewBox="0 0 96 97" fill="none" xmlns="http://www.w3.org/2000/svg">
<g clip-path="url(#clip0_259_374)">
<path d="M13.1555 59.5223C13.6777 59.5223 24.1308 61.8673 29.292 63.0397C26.935 69.2405 25.6658 70.4371 25.3395 70.4734C25.0784 70.5024 14.9081 64.7078 9.85565 61.8068L11.4874 60.175C12.1039 59.5586 12.5028 59.5223 13.1555 59.5223Z" fill="#0A0A0A"/>
<path d="M38.164 84.5307C38.164 84.0085 35.8191 73.5554 34.6466 68.3942C28.4458 70.7512 27.2492 72.0204 27.2129 72.3467C27.1839 72.6078 32.9785 82.7781 35.8795 87.8305L37.5113 86.1988C38.1277 85.5823 38.164 85.1834 38.164 84.5307Z" fill="#0A0A0A"/>
<path d="M46.8442 21.0642C46.0692 21.4019 42.4033 24.8218 40.8929 26.6055C40.2707 27.2277 42.4988 29.2363 42.4988 29.2363C42.4988 29.2363 44.5074 31.4644 45.1296 30.8422C46.9133 29.3318 50.3332 25.6659 50.6709 24.8909C51.093 23.9221 50.2437 22.9264 49.5262 22.2089C48.8087 21.4914 47.813 20.6421 46.8442 21.0642Z" fill="#090909"/>
<path d="M49.5261 22.2089C48.8086 21.4914 47.8129 20.6421 46.8442 21.0642C46.6966 21.1285 46.444 21.3047 46.1214 21.5601C46.1214 21.5601 47.2345 21.4545 48.7575 22.9775C50.2805 24.5005 50.1749 25.6136 50.1749 25.6136C50.4304 25.291 50.6065 25.0385 50.6709 24.8908C51.0929 23.9221 50.2436 22.9264 49.5261 22.2089Z" fill="#1A1A1A"/>
<path d="M47.423 24.167L47.568 24.3121L42.4188 29.6063L42.1287 29.3162L47.423 24.167Z" fill="#1A1A1A"/>
<path d="M72.8079 47.0276C72.0329 47.3652 68.3669 50.7852 66.8565 52.5689C66.2343 53.1911 68.4625 55.1996 68.4625 55.1996C68.4625 55.1996 70.471 57.4278 71.0932 56.8056C72.8769 55.2952 76.2969 51.6292 76.6345 50.8542C77.0566 49.8855 76.2073 48.8898 75.4898 48.1723C74.7723 47.4548 73.7766 46.6055 72.8079 47.0276Z" fill="#090909"/>
<path d="M75.4898 48.1723C74.7723 47.4548 73.7766 46.6055 72.8078 47.0275C72.6602 47.0919 72.4076 47.268 72.0851 47.5235C72.0851 47.5235 73.1981 47.4179 74.7212 48.9409C76.2442 50.4639 76.1386 51.577 76.1386 51.577C76.394 51.2544 76.5702 51.0018 76.6345 50.8542C77.0566 49.8855 76.2073 48.8898 75.4898 48.1723Z" fill="#1A1A1A"/>
<path d="M73.3866 50.1304L73.5317 50.2754L68.3825 55.5697L68.0924 55.2796L73.3866 50.1304Z" fill="#1A1A1A"/>
<path fill-rule="evenodd" clip-rule="evenodd" d="M66.0015 22.2689C77.0185 11.2519 83.157 11.3988 84.8492 12.8493C86.2997 14.5414 86.4466 20.68 75.4296 31.697L53.3955 53.731C49.666 57.4186 41.396 65.2151 38.1523 66.9001C34.9086 68.585 28.1188 72.1357 25.075 73.7548L24.5093 73.1892L23.9436 72.6235C25.5627 69.5797 29.1135 62.7899 30.7984 59.5462C32.4833 56.3024 40.2798 48.0325 43.9675 44.3029L66.0015 22.2689ZM75.9287 15.3876L78.4308 15.2789L78.1463 16.2998L75.9036 16.0878L75.9287 15.3876ZM81.3987 19.5522L82.4196 19.2677L82.3108 21.7697L81.6107 21.7948L81.3987 19.5522ZM78.3416 16.35L78.7237 15.3542L80.9301 16.4002L79.951 17.3793L78.3416 16.35ZM82.3443 18.9748L81.3485 19.3569L80.3192 17.7475L81.2983 16.7684L82.3443 18.9748Z" fill="#090909"/>
<path d="M19.8936 24.1866C21.1741 23.9797 46.7675 27.8199 59.4042 29.7659C49.8154 40.5625 46.1609 43.7473 45.3239 43.2423L40.5599 38.4784L15.3675 26.6326C16.3427 25.9035 18.6131 24.3935 19.8936 24.1866Z" fill="#0A0A0A"/>
<path d="M73.5119 77.805C73.7188 76.5245 69.8786 50.931 67.9326 38.2944C57.136 47.8832 53.9512 51.5377 54.4561 52.3747L59.2201 57.1386L71.0658 82.3311C71.795 81.3559 73.305 79.0855 73.5119 77.805Z" fill="#0A0A0A"/>
<path d="M34.3908 62.8002L34.8985 63.3079L24.2484 74.443C23.9762 74.7276 23.5231 74.7327 23.2445 74.4541V74.4541C22.966 74.1756 22.9711 73.7225 23.2557 73.4502L34.3908 62.8002Z" fill="#1A1A1A"/>
</g>
<defs>
<clipPath id="clip0_259_374">
<rect width="96" height="96.0001" fill="white" transform="translate(0 0.800293)"/>
</clipPath>
</defs>
</svg>
